<svg
  xmlns="http://www.w3.org/2000/svg"
  xmlns:xlink="http://www.w3.org/1999/xlink"
  viewBox="0 0 128 36.3"
>
  <g>
    <g>
      <path
        fill="#4a4a55"
        d="M20.7,26.5V9.8h3.8v2.8h0.2c0.3-1,0.9-1.7,1.7-2.2c0.8-0.5,1.8-0.8,2.9-0.8
      c1.1,0,2.1,0.3,2.9,0.8c0.8,0.5,1.3,1.3,1.7,2.2H34c0.4-0.9,1-1.7,1.9-2.2s1.9-0.8,3.1-0.8c1.5,0,2.8,0.5,3.8,1.5
      c1,1,1.5,2.4,1.5,4.3v11.2h-4V15.9c0-1-0.3-1.8-0.8-2.3c-0.6-0.5-1.2-0.7-2-0.7c-1,0-1.7,0.3-2.2,0.9s-0.8,1.4-0.8,2.3v10.4h-3.9
      V15.7c0-0.9-0.3-1.6-0.8-2.1c-0.5-0.5-1.2-0.8-2-0.8c-0.6,0-1.1,0.1-1.5,0.4c-0.5,0.3-0.8,0.7-1.1,1.2c-0.3,0.5-0.4,1.1-0.4,1.8
      v10.2H20.7z"
      />
      <path
        fill="#4a4a55"
        d="M55.5,26.8c-1.6,0-3-0.4-4.2-1.1c-1.2-0.7-2.1-1.7-2.8-3c-0.7-1.3-1-2.8-1-4.5
      c0-1.7,0.3-3.2,1-4.5s1.6-2.3,2.8-3s2.6-1.1,4.2-1.1s3,0.4,4.2,1.1s2.1,1.7,2.8,3s1,2.8,1,4.5c0,1.7-0.3,3.2-1,4.5
      c-0.7,1.3-1.6,2.3-2.8,3C58.6,26.5,57.2,26.8,55.5,26.8z M55.6,23.7c0.9,0,1.6-0.2,2.2-0.7c0.6-0.5,1-1.1,1.3-2
      c0.3-0.8,0.4-1.8,0.4-2.8c0-1-0.1-2-0.4-2.8s-0.7-1.5-1.3-2c-0.6-0.5-1.3-0.7-2.2-0.7c-0.9,0-1.7,0.2-2.3,0.7
      c-0.6,0.5-1,1.2-1.3,2c-0.3,0.8-0.4,1.8-0.4,2.8c0,1,0.1,1.9,0.4,2.8c0.3,0.8,0.7,1.5,1.3,2C53.9,23.4,54.7,23.7,55.6,23.7z"
      />
      <path
        fill="#4a4a55"
        d="M73.1,26.8c-1.3,0-2.5-0.3-3.5-1c-1-0.7-1.9-1.7-2.5-2.9s-0.9-2.8-0.9-4.7
      c0-1.9,0.3-3.4,0.9-4.7c0.6-1.3,1.4-2.3,2.5-2.9c1-0.7,2.2-1,3.5-1c1,0,1.8,0.2,2.4,0.5c0.6,0.3,1.1,0.7,1.5,1.2
      c0.4,0.5,0.7,0.9,0.9,1.3h0.2V4.2h4v22.3h-3.9v-2.6h-0.2c-0.2,0.4-0.5,0.8-0.9,1.3c-0.4,0.5-0.9,0.8-1.5,1.2
      C74.9,26.6,74.1,26.8,73.1,26.8z M74.2,23.5c0.8,0,1.5-0.2,2.1-0.7c0.6-0.5,1-1.1,1.3-1.9c0.3-0.8,0.5-1.8,0.5-2.8
      c0-1.1-0.2-2-0.5-2.8s-0.7-1.4-1.3-1.9c-0.6-0.4-1.3-0.7-2.2-0.7c-0.9,0-1.6,0.2-2.2,0.7s-1,1.1-1.3,1.9s-0.4,1.7-0.4,2.8
      c0,1,0.2,2,0.5,2.8c0.3,0.8,0.7,1.5,1.3,1.9S73.3,23.5,74.2,23.5z"
      />
      <path
        fill="#4a4a55"
        d="M91,26.8c-1.1,0-2-0.2-2.9-0.6c-0.8-0.4-1.5-0.9-2-1.7s-0.7-1.7-0.7-2.8
      c0-0.9,0.2-1.7,0.5-2.3c0.3-0.6,0.8-1.1,1.4-1.5s1.3-0.7,2-0.8s1.5-0.3,2.4-0.4c1-0.1,1.8-0.2,2.4-0.3c0.6-0.1,1.1-0.2,1.3-0.4
      c0.3-0.2,0.4-0.5,0.4-0.8v-0.1c0-0.8-0.2-1.5-0.7-1.9s-1.2-0.7-2.1-0.7c-1,0-1.7,0.2-2.3,0.6c-0.6,0.4-0.9,0.9-1.1,1.5L86,14.2
      c0.3-1,0.8-1.9,1.4-2.6c0.7-0.7,1.5-1.2,2.5-1.5c1-0.3,2-0.5,3.2-0.5c0.8,0,1.6,0.1,2.4,0.3c0.8,0.2,1.5,0.5,2.2,0.9
      c0.7,0.4,1.2,1,1.6,1.8c0.4,0.7,0.6,1.7,0.6,2.8v11.2h-3.8v-2.3H96c-0.2,0.5-0.6,0.9-1,1.3c-0.4,0.4-1,0.7-1.6,1
      C92.7,26.7,91.9,26.8,91,26.8z M92.1,23.9c0.8,0,1.5-0.2,2.1-0.5c0.6-0.3,1-0.7,1.3-1.3c0.3-0.5,0.5-1.1,0.5-1.7v-2
      c-0.1,0.1-0.3,0.2-0.6,0.3c-0.3,0.1-0.6,0.2-1,0.2s-0.7,0.1-1.1,0.2c-0.4,0.1-0.7,0.1-0.9,0.1c-0.6,0.1-1.1,0.2-1.6,0.4
      s-0.8,0.4-1.1,0.8c-0.3,0.3-0.4,0.7-0.4,1.2c0,0.7,0.3,1.3,0.8,1.6S91.2,23.9,92.1,23.9z"
      />
      <path fill="#4a4a55" d="M107.8,4.2v22.3h-3.9V4.2H107.8z" />
      <path
        fill="#4a4a55"
        d="M119.3,26.8c-1.7,0-3.1-0.4-4.3-1.1c-1.2-0.7-2.2-1.7-2.8-3c-0.7-1.3-1-2.8-1-4.6
      c0-1.7,0.3-3.2,1-4.5c0.7-1.3,1.6-2.3,2.8-3.1c1.2-0.7,2.6-1.1,4.2-1.1c1,0,2,0.2,2.9,0.5c0.9,0.3,1.7,0.8,2.4,1.5
      s1.3,1.6,1.7,2.6c0.4,1.1,0.6,2.3,0.6,3.8v1.2H113v-2.7h9.9c0-0.8-0.2-1.4-0.5-2c-0.3-0.6-0.8-1.1-1.3-1.4s-1.2-0.5-2-0.5
      c-0.8,0-1.5,0.2-2.1,0.6c-0.6,0.4-1.1,0.9-1.4,1.5c-0.3,0.6-0.5,1.3-0.5,2.1v2.3c0,1,0.2,1.8,0.5,2.5c0.4,0.7,0.9,1.2,1.5,1.6
      c0.6,0.4,1.4,0.5,2.2,0.5c0.6,0,1.1-0.1,1.6-0.2c0.5-0.2,0.9-0.4,1.2-0.7c0.3-0.3,0.6-0.7,0.8-1.2l3.7,0.4c-0.2,1-0.7,1.8-1.3,2.5
      c-0.6,0.7-1.5,1.3-2.5,1.7C121.7,26.6,120.6,26.8,119.3,26.8z"
      />
    </g>
    <path
      fill="#f14832"
      d="M6.5,26.3c-2.1,0.6-4.4-0.3-5.6-2.1c-0.8-1.1-1.1-2.4-0.8-3.7c0-0.2,0.1-0.4,0.2-0.6l0.1-0.4
    l0.3,0.3c0.8,0.6,1.7,1,2.6,1.3l0.3,0.1l0,0.3c0,0.3,0.1,0.7,0.3,1c0.4,0.5,1.1,0.8,1.7,0.6c0.1,0,0.3-0.1,0.4-0.2l6.6-4.2
    c0.3-0.2,0.6-0.5,0.6-0.9c0.1-0.4,0-0.8-0.3-1.1c-0.4-0.5-1.1-0.8-1.7-0.6c-0.1,0-0.3,0.1-0.4,0.2l-2.5,1.6
    c-0.4,0.3-0.9,0.5-1.3,0.6c-2.1,0.6-4.4-0.3-5.6-2.1c-0.8-1.1-1.1-2.4-0.8-3.7c0.2-1.3,1-2.4,2.1-3.1l6.6-4.2
    C9.5,5,10,4.8,10.4,4.7c2.1-0.6,4.4,0.3,5.6,2.1c0.8,1.1,1.1,2.4,0.8,3.7c0,0.2-0.1,0.4-0.2,0.6l-0.1,0.4l-0.3-0.3
    c-0.8-0.6-1.7-1-2.6-1.3l-0.3-0.1l0-0.3c0-0.3-0.1-0.7-0.3-1c-0.4-0.5-1.1-0.8-1.7-0.6c-0.1,0-0.3,0.1-0.4,0.2l-6.6,4.2
    c-0.3,0.2-0.6,0.5-0.6,0.9c-0.1,0.4,0,0.8,0.3,1.1c0.4,0.5,1,0.8,1.7,0.6C6,15,6.1,15,6.2,14.9l2.5-1.6c0.4-0.3,0.9-0.5,1.3-0.6
    c2.1-0.6,4.4,0.3,5.6,2.1c0.8,1.1,1.1,2.4,0.8,3.7c-0.2,1.3-1,2.4-2.1,3.1l-6.6,4.2C7.5,26,7,26.2,6.5,26.3"
    />
  </g>
</svg>
