<svg
  xmlns="http://www.w3.org/2000/svg"
  xmlns:xlink="http://www.w3.org/1999/xlink"
  viewBox="0 0 32 32"
>
  <path
    fill="#f14832"
    d="M13.2,31.8c-3.1,0.8-6.4-0.4-8.2-3.1c-1.1-1.6-1.5-3.5-1.2-5.4c0.1-0.3,0.1-0.6,0.2-0.9l0.2-0.6
  l0.5,0.4c1.1,0.8,2.4,1.5,3.8,1.9l0.4,0.1l0,0.4c0,0.5,0.1,1,0.4,1.4c0.6,0.8,1.5,1.2,2.5,0.9c0.2-0.1,0.4-0.1,0.6-0.3l9.6-6.1
  c0.5-0.3,0.8-0.8,0.9-1.3c0.1-0.6,0-1.1-0.4-1.6c-0.6-0.8-1.5-1.2-2.5-0.9c-0.2,0.1-0.4,0.1-0.6,0.3l-3.7,2.3
  c-0.6,0.4-1.3,0.7-2,0.9c-3.1,0.8-6.4-0.4-8.2-3c-1.1-1.6-1.5-3.5-1.2-5.4c0.3-1.8,1.4-3.5,3-4.5l9.7-6.1c0.6-0.4,1.3-0.7,1.9-0.9
  c3.1-0.8,6.4,0.4,8.2,3.1c1.1,1.6,1.5,3.5,1.2,5.4c-0.1,0.3-0.1,0.6-0.2,0.9l-0.2,0.6l-0.5-0.4c-1.1-0.8-2.4-1.5-3.8-1.9l-0.4-0.1
  l0-0.4c0-0.5-0.1-1-0.4-1.4c-0.6-0.8-1.5-1.1-2.5-0.9c-0.2,0.1-0.4,0.1-0.6,0.3l-9.7,6.1c-0.5,0.3-0.8,0.8-0.9,1.3
  c-0.1,0.6,0,1.2,0.4,1.6c0.6,0.8,1.5,1.2,2.5,0.9c0.2-0.1,0.4-0.1,0.6-0.3l3.7-2.3c0.6-0.4,1.3-0.7,2-0.9c3.1-0.8,6.4,0.4,8.2,3
  c1.1,1.6,1.5,3.5,1.2,5.4c-0.3,1.8-1.4,3.5-3,4.5l-9.7,6.1C14.5,31.3,13.9,31.6,13.2,31.8"
  />
</svg>
